<svg width="42" height="42" viewBox="0 0 42 42" fill="none" xmlns="http://www.w3.org/2000/svg">
<g clip-path="url(#clip0_1_3027)">
<mask id="mask0_1_3027" style="mask-type:luminance" maskUnits="userSpaceOnUse" x="0" y="0" width="42" height="42">
<path d="M0 0H42V42H0V0Z" fill="white"/>
</mask>
<g mask="url(#mask0_1_3027)">
<mask id="mask1_1_3027" style="mask-type:alpha" maskUnits="userSpaceOnUse" x="0" y="1" width="42" height="40">
<path d="M22.2781 21.4152C48.5741 29.9223 38.0422 44.3574 21.7901 22.0836C38.0422 44.3574 21.0001 49.8712 21.0001 22.3389C21.0001 49.8712 3.95939 44.3574 20.21 22.0836C3.95939 44.3574 -6.574 29.9223 19.722 21.4152C-6.574 29.9223 -6.574 12.0748 19.722 20.5878C-6.574 12.0792 3.95939 -2.35622 20.21 19.9191C3.95939 -2.35622 21.0001 -7.86998 21.0001 19.6638C21.0001 -7.86998 38.0422 -2.35622 21.7901 19.9191C38.0422 -2.35622 48.5741 12.0792 22.2781 20.5875C48.5741 12.0792 48.5741 29.9223 22.2781 21.4152Z" fill="white"/>
</mask>
<g mask="url(#mask1_1_3027)">
<path d="M42 0H0V42H42V0Z" fill="white"/>
<path d="M42 0H0V42H42V0Z" fill="url(#paint0_linear_1_3027)"/>
<g filter="url(#filter0_f_1_3027)">
<path d="M36.9624 48.8106C48.0052 41.3971 53.911 30.85 50.1534 25.2529C46.3959 19.6558 34.3978 21.1282 23.3551 28.5416C12.3123 35.9551 6.40646 46.5022 10.164 52.0993C13.9216 57.6964 25.9196 56.224 36.9624 48.8106Z" fill="#FF58E4"/>
<path d="M18.8188 17.0944C26.0506 13.5262 29.9267 6.60753 27.4762 1.64113C25.0258 -3.32527 17.1767 -4.45873 9.94493 -0.890513C2.71312 2.6777 -1.16293 9.59638 1.28752 14.5628C3.73797 19.5292 11.587 20.6626 18.8188 17.0944Z" fill="#0A8289"/>
</g>
</g>
</g>
</g>
<defs>
<filter id="filter0_f_1_3027" x="-70.1846" y="-73.7085" width="192.207" height="199.942" filterUnits="userSpaceOnUse" color-interpolation-filters="sRGB">
<feFlood flood-opacity="0" result="BackgroundImageFix"/>
<feBlend mode="normal" in="SourceGraphic" in2="BackgroundImageFix" result="shape"/>
<feGaussianBlur stdDeviation="35.3684" result="effect1_foregroundBlur_1_3027"/>
</filter>
<linearGradient id="paint0_linear_1_3027" x1="33.285" y1="2.625" x2="6.09" y2="42" gradientUnits="userSpaceOnUse">
<stop stop-color="#0E6FFF"/>
<stop offset="1" stop-color="#00F0FF"/>
</linearGradient>
<clipPath id="clip0_1_3027">
<rect width="42" height="42" fill="white"/>
</clipPath>
</defs>
</svg>
